Land_normalized_Motion_pl01
version=1
nRows=25
nColumns=43
inDegrees=yes
endheader
time		pelvis_tilt		pelvis_list		pelvis_rotation		pelvis_tx		pelvis_ty		pelvis_tz		hip_flexion_r		hip_adduction_r		hip_rotation_r		knee_angle_r		ankle_angle_r		subtalar_angle_r		mtp_angle_r		hip_flexion_l		hip_adduction_l		hip_rotation_l		knee_angle_l		ankle_angle_l		subtalar_angle_l		mtp_angle_l		lumbar_extension		lumbar_bending		lumbar_rotation		neck_flexion		neck_lateral_bending		neck_rotation		arm_flex_r		arm_add_r		arm_rot_r		elbow_flex_r		pro_sup_r		wrist_flex_r		wrist_dev_r		hand_finger_flex_r		arm_flex_l		arm_add_l		arm_rot_l		elbow_flex_l		pro_sup_l		wrist_flex_l		wrist_dev_l		hand_finger_flex_l		
4.460833		-1.307123		8.018279		94.715262		-0.011266		0.453251		0.480693		84.344996		-5.092243		3.482555		-134.045347		4.632360		12.976227		33.978841		81.020471		-5.689970		5.515231		-135.057981		17.808870		8.912275		34.077573		-58.463478		-0.785508		1.949238		15.297725		8.888169		-6.248122		59.820820		-25.356506		7.421201		52.408373		117.947808		-20.880664		-14.565013		-35.212696		51.594866		-21.211158		6.125443		69.570371		148.348924		-36.995848		-3.066122		-22.205280		
4.463460		-1.293864		7.998213		94.733336		-0.011004		0.449192		0.479949		84.871839		-5.166630		3.409558		-134.662053		4.652963		12.822929		33.986939		81.538500		-5.768546		5.603892		-135.683970		17.961736		8.866698		34.099321		-58.825485		-0.794094		1.900572		15.271702		8.895886		-6.127003		61.536796		-25.287237		7.949068		52.828546		118.048913		-20.772582		-14.738674		-35.209904		53.865727		-21.002681		6.835640		69.770491		148.365268		-36.720690		-3.295235		-22.132575		
4.466086		-1.264503		8.184337		94.804020		-0.010746		0.445725		0.479430		85.110151		-5.288038		3.299233		-135.228288		4.773725		12.594928		34.012170		81.790784		-5.805514		5.738081		-136.237069		18.155372		8.850172		34.121908		-59.405767		-0.794994		2.051678		15.172875		9.045531		-6.223951		63.306481		-25.570181		8.799536		53.097807		117.924192		-21.086801		-14.932579		-35.502840		56.568069		-20.581837		8.101195		69.436926		148.012436		-36.755727		-3.440270		-22.204506		
4.468712		-1.209885		8.380402		94.955767		-0.010368		0.442407		0.479147		85.311448		-5.433823		3.125485		-135.772327		4.866437		12.340508		34.047188		82.053216		-5.848588		5.842974		-136.739178		18.395277		8.854682		34.147971		-59.990018		-0.743307		2.250230		15.361722		9.173364		-6.295699		65.217497		-26.091095		10.089833		53.128294		117.758983		-21.408182		-15.143910		-35.857515		59.754692		-20.345380		10.026997		68.502433		147.616126		-36.639353		-3.698763		-22.232500		
4.471338		-1.182316		8.244299		94.987238		-0.010052		0.438586		0.478425		85.907090		-5.490166		3.041056		-136.350205		4.967248		12.325210		34.054510		82.669507		-5.989977		5.843351		-137.289243		18.543703		8.860875		34.160132		-60.253472		-0.729761		2.172093		15.620942		9.078544		-6.146423		66.974687		-25.989641		10.684950		53.373183		117.859383		-21.261491		-15.331746		-35.820556		62.125048		-20.215657		10.892479		68.385718		147.799161		-36.262931		-4.079144		-22.096575		
4.473965		-1.170411		8.145084		94.984573		-0.009850		0.435022		0.477658		86.424212		-5.534712		3.020935		-136.896690		5.119818		12.292015		34.058251		83.199328		-6.095370		5.885414		-137.809816		18.664602		8.852999		34.170009		-60.581136		-0.751863		2.121397		15.583340		9.060270		-6.076254		68.609264		-25.820799		10.995158		53.732516		117.940799		-21.219009		-15.498887		-35.811133		64.177931		-19.847630		11.341186		68.603992		147.904155		-36.092147		-4.321015		-22.036431		
4.476591		-1.206285		8.407795		95.194426		-0.009705		0.432565		0.477638		86.459057		-5.741872		3.003044		-137.331364		5.429236		12.199857		34.076736		83.266773		-6.000332		5.862332		-138.155129		18.854159		8.831382		34.149752		-61.317166		-0.725630		2.299290		15.635509		9.387373		-6.320402		70.604099		-26.363831		12.252959		53.509060		117.887387		-21.917516		-15.850992		-36.189998		67.270047		-19.174358		12.918539		67.477548		147.852087		-36.396019		-4.742481		-22.073179		
4.479217		-1.200680		8.467757		95.255188		-0.009511		0.429810		0.477318		86.713763		-5.824042		2.970456		-137.752583		5.696804		12.169060		34.087537		83.560872		-6.045532		5.857847		-138.537395		19.004472		8.800502		34.140887		-61.852526		-0.755960		2.352706		15.587463		9.557971		-6.451066		72.358229		-26.506917		12.948884		53.616930		117.862793		-22.328592		-16.100291		-36.404436		69.748872		-18.590689		13.806824		67.035988		147.840384		-36.559189		-5.035711		-22.087997		
4.481843		-1.156801		8.238467		95.372029		-0.009073		0.426621		0.477206		87.293305		-5.866031		2.876571		-138.146997		5.770945		12.121680		34.093684		84.219409		-6.108267		5.812510		-138.851086		19.154051		8.620326		34.125566		-62.077788		-0.723489		2.341718		15.889923		9.624062		-6.394345		74.270551		-26.608245		13.888130		53.458581		118.012562		-22.301103		-16.266843		-36.379303		72.451297		-18.415085		15.065907		66.383284		148.150101		-36.160194		-5.603128		-21.876681		
4.484470		-1.108595		8.027748		95.332768		-0.008702		0.423540		0.476816		87.830763		-5.808187		2.815980		-138.512397		5.983531		12.110922		34.096347		84.806044		-6.221648		5.809157		-139.239967		19.270982		8.518973		34.123732		-62.340552		-0.790651		2.277994		15.863983		9.647546		-6.374206		75.873699		-26.401257		14.187514		53.698676		118.075970		-22.327164		-16.386630		-36.377720		74.474628		-17.994707		15.456981		66.409940		148.264739		-36.022937		-5.851106		-21.804020		
4.487096		-1.079515		7.982595		95.479218		-0.008179		0.421165		0.477033		88.141297		-5.796612		2.749634		-138.784024		6.437112		11.935676		34.114590		85.167017		-6.165138		5.728039		-139.470869		19.365168		7.694883		34.025548		-62.756910		-0.822533		2.423281		16.184835		10.139306		-6.619895		77.946034		-26.706257		15.568821		53.062430		118.083078		-23.155458		-16.525084		-36.699923		77.595618		-17.195990		16.870394		64.678379		148.409655		-36.374329		-6.510716		-21.793948		
4.489722		-1.037856		7.755702		95.426202		-0.007686		0.418500		0.476734		88.613124		-5.679129		2.663226		-139.058825		6.748599		11.934393		34.118855		85.716593		-6.305035		5.668033		-139.795429		19.464412		7.496570		34.010255		-63.034360		-0.920716		2.402499		16.077133		10.206745		-6.657411		79.471604		-26.482386		15.754220		53.276148		118.084423		-23.341292		-16.605050		-36.761168		79.497940		-16.634902		17.096610		64.692598		148.461978		-36.433145		-6.717131		-21.787423		
4.492348		-0.893653		7.310983		95.516041		-0.007036		0.415594		0.476766		89.330136		-5.571009		2.440800		-139.290970		7.016163		11.923755		34.130109		86.531770		-6.370960		5.613870		-139.996026		19.660875		6.863131		33.956281		-63.032550		-0.913285		2.423639		16.522452		10.349917		-6.673759		81.383324		-26.365248		16.557871		52.746713		118.184071		-23.241936		-16.531834		-36.706891		82.247297		-16.344928		18.424718		63.598164		148.927523		-35.970754		-7.352412		-21.607904		
4.494975		-0.807876		6.918828		95.468166		-0.006158		0.412863		0.476422		89.982427		-5.347852		2.250376		-139.535697		7.559537		11.890657		34.135699		87.200022		-6.601679		5.554299		-140.205799		19.791805		6.541910		33.932872		-63.093262		-1.001007		2.335336		16.725030		10.369149		-6.667984		82.922999		-25.910067		16.770265		52.705855		118.198200		-23.201415		-16.474602		-36.691117		84.256980		-15.794839		18.650409		63.117446		149.034259		-35.763251		-7.467993		-21.557689		
4.497601		-0.662994		6.706478		95.681400		-0.005794		0.410718		0.476641		90.296998		-5.391095		2.027014		-139.689625		7.824618		11.708209		34.159621		87.716369		-6.350215		5.492077		-140.400491		19.854061		5.374009		33.795994		-63.384965		-0.930772		2.381647		16.755353		10.884030		-6.833485		84.705270		-25.989388		17.467563		52.389999		118.324560		-23.344739		-16.368341		-36.809888		86.850852		-15.186174		19.753872		62.015565		149.506960		-35.956348		-8.083574		-21.774842		
4.500227		-0.593807		6.415944		95.715429		-0.005214		0.408528		0.476490		90.723904		-5.269744		1.862866		-139.868446		8.268697		11.661034		34.188856		88.249535		-6.366527		5.351663		-140.589175		19.883891		4.488556		33.640874		-63.580529		-1.005224		2.381767		16.917582		11.080083		-6.942017		86.230519		-25.804721		17.791677		52.312669		118.324103		-23.451151		-16.142529		-36.944376		89.032664		-14.468915		20.317287		61.152899		149.745637		-36.253825		-8.412149		-22.070145		
4.502854		-0.548715		6.054876		95.599541		-0.004775		0.406394		0.476032		91.186684		-5.062370		1.764489		-140.033381		8.655690		11.639075		34.191955		88.800810		-6.441127		5.300586		-140.849280		19.996920		4.364790		33.631919		-63.724854		-1.122998		2.310222		16.812624		11.065137		-6.936091		87.521707		-25.399810		17.711799		52.557362		118.328130		-23.421999		-16.121744		-36.936640		90.554537		-13.954843		20.244527		61.242755		149.765833		-36.183484		-8.433012		-22.080559		
4.505480		-0.444961		5.554153		95.615520		-0.004061		0.404178		0.475725		91.794293		-4.847208		1.544312		-140.173207		9.238124		11.501878		34.200989		89.486638		-6.546980		5.198339		-141.010084		20.210784		3.962617		33.588316		-63.647971		-1.183430		2.197177		17.230692		11.024319		-6.895019		88.993372		-24.890403		17.837828		52.163305		118.353845		-23.154674		-15.827273		-36.868162		92.575247		-13.354931		20.664619		60.391017		149.948430		-35.770774		-8.519462		-22.049400		
4.508106		-0.419142		5.276017		95.678333		-0.003827		0.402562		0.475598		92.051074		-4.808989		1.452312		-140.275604		9.518659		11.260409		34.216625		89.890692		-6.431389		5.100838		-141.129732		20.320467		3.407415		33.483810		-63.920324		-1.189227		2.105189		17.164778		11.227619		-6.936296		90.355304		-24.653514		17.867116		52.355808		118.506247		-23.025100		-15.622748		-36.887015		94.359362		-12.807013		20.916175		60.051166		150.082901		-35.878508		-8.653901		-22.303733		
4.510732		-0.357613		5.041658		96.054761		-0.003615		0.401694		0.476086		92.138682		-4.975297		1.324559		-140.246499		9.868852		10.588983		34.262955		90.173510		-6.078362		4.824699		-141.018451		20.462513		1.894950		33.158791		-64.280208		-1.031573		1.942697		17.607555		11.732984		-7.027361		91.986242		-24.529799		18.185055		52.105155		118.933269		-22.575769		-14.869958		-36.940819		97.023557		-12.001243		21.945560		58.289875		150.449175		-36.144202		-8.959269		-23.023925		
4.513359		-0.330282		4.531237		96.040328		-0.003251		0.400187		0.475782		92.585348		-4.803381		1.171169		-140.286200		10.210561		10.422203		34.273511		90.701373		-6.139501		4.621839		-141.049159		20.628456		1.668298		33.094507		-64.271195		-1.080740		1.872319		17.721075		11.626955		-6.982644		93.260621		-24.124985		18.041978		52.052195		118.963697		-22.422376		-14.623179		-36.926175		98.622199		-11.434333		22.078307		57.861679		150.481626		-35.914668		-8.945807		-23.066474		
4.515985		-0.327658		4.145234		96.260807		-0.003147		0.399112		0.475880		92.801752		-4.841816		1.112268		-140.279967		10.343887		9.812789		34.295782		91.091753		-5.898929		4.433510		-141.016416		20.880472		1.095218		32.928557		-64.446301		-0.979391		1.676924		17.842181		11.746036		-6.967678		94.585145		-23.811932		17.955046		52.069207		119.150322		-22.116165		-14.219089		-36.902368		100.504680		-10.860356		22.480670		57.113661		150.577483		-35.773939		-8.998911		-23.298042		
4.518611		-0.356256		3.819741		96.580916		-0.003203		0.398480		0.476170		92.870465		-4.944902		1.135085		-140.219424		10.359746		8.948283		34.337224		91.370587		-5.469021		4.138957		-140.949759		21.134327		0.237180		32.597665		-64.723361		-0.844071		1.469929		18.039090		11.988659		-6.953073		95.879098		-23.606227		17.774462		52.131242		119.487504		-21.665763		-13.587123		-36.915052		102.558458		-10.210787		23.106063		56.112034		150.654228		-35.800667		-9.066113		-23.805576		
4.521237		-0.355287		3.355587		96.660527		-0.003065		0.397656		0.475970		93.151649		-4.815574		1.062293		-140.184436		10.632760		8.521165		34.363976		91.787163		-5.409521		3.898051		-140.919444		21.302417		-0.183268		32.380108		-64.788219		-0.839174		1.306159		18.185018		11.991439		-6.898836		96.982862		-23.224046		17.558694		52.209191		119.641798		-21.395256		-13.204429		-36.935154		104.180798		-9.608651		23.292577		55.454831		150.600897		-35.699456		-8.971171		-24.073315		
4.523864		-0.337139		2.895332		96.819522		-0.002888		0.396737		0.475828		93.443239		-4.755439		0.960390		-140.168137		10.848145		8.037181		34.378438		92.243490		-5.292683		3.751288		-140.895784		21.539338		-0.469572		32.254472		-64.831635		-0.764320		1.114397		18.295215		11.942899		-6.804330		98.091196		-22.803102		17.342565		52.189408		119.660730		-21.188145		-12.933835		-36.924081		105.746742		-9.027300		23.434882		54.843184		150.582541		-35.422709		-8.857737		-24.157751		
